<svg xmlns="http://www.w3.org/2000/svg" viewBox="0 0 24 24"><path fill-rule="evenodd" d="M9.163 3.206a1.401 1.401 0 0 0-.593-.004c-.199.041-.4.15-1.03.515L7.053 4c-.627.364-.819.484-.953.635a1.4 1.4 0 0 0-.29.514c-.06.193-.064.42-.052 1.144l.007.424v.024a2.6 2.6 0 0 1-.307 1.313l-.068.121-.007.013c-.03.05-.05.086-.072.121a2.6 2.6 0 0 1-1.005.935l-.362.2c-.638.354-.833.47-.97.62a1.401 1.401 0 0 0-.301.51c-.064.194-.07.42-.069 1.15l.002.562c.001.725.009.95.072 1.142a1.4 1.4 0 0 0 .3.508c.137.148.33.264.964.617l.369.205c.051.029.09.05.128.073a2.599 2.599 0 0 1 .945.989l.005.008.011.02c.026.045.047.081.066.117a2.6 2.6 0 0 1 .3 1.325l-.007.41c-.013.728-.01.955.051 1.148.06.19.159.366.292.515.135.151.328.271.958.634l.494.285c.628.362.828.469 1.026.51.195.04.396.038.59-.005.197-.045.395-.155 1.017-.527l.354-.212a2.599 2.599 0 0 1 1.309-.402l.14-.001h.018l.141.001a2.6 2.6 0 0 1 1.182.328c.038.02.075.043.127.074l.358.215c.625.375.824.486 1.022.53a1.4 1.4 0 0 0 .592.005c.199-.041.4-.15 1.03-.515l.487-.283c.627-.364.819-.484.953-.635.132-.149.231-.324.29-.514.06-.193.064-.42.052-1.144l-.007-.424v-.022c-.002-.048-.002-.087-.002-.125a2.6 2.6 0 0 1 .377-1.311l.004-.008.075-.126c.22-.354.52-.65.877-.862l.118-.067.372-.206c.638-.354.833-.47.97-.62.136-.146.239-.32.301-.51.063-.194.07-.422.069-1.15l-.001-.562c-.002-.725-.01-.95-.073-1.142a1.4 1.4 0 0 0-.3-.508c-.137-.148-.33-.264-.964-.617l-.369-.205c-.052-.03-.09-.05-.126-.072a2.6 2.6 0 0 1-.948-.987l-.005-.007-.07-.123a2.6 2.6 0 0 1-.307-1.187l.001-.13.008-.437c.012-.727.008-.954-.052-1.147a1.402 1.402 0 0 0-.292-.515c-.134-.151-.328-.27-.958-.634l-.494-.285c-.628-.362-.828-.469-1.026-.51a1.4 1.4 0 0 0-.59.005c-.197.044-.395.154-1.018.527l-.353.212a2.6 2.6 0 0 1-1.309.402l-.141.001h-.017l-.14-.001a2.602 2.602 0 0 1-1.301-.397l-.367-.22c-.625-.376-.823-.486-1.021-.53Zm-.839-1.179a2.601 2.601 0 0 1 1.101.008c.411.093.785.317 1.297.625l.08.048.356.214.095.056a1.401 1.401 0 0 0 .748.177h.11a1.4 1.4 0 0 0 .731-.232l.354-.212.08-.049c.51-.305.882-.528 1.29-.62a2.6 2.6 0 0 1 1.097-.009c.411.085.788.303 1.305.6l.077.046.494.284.08.047c.518.297.895.514 1.175.828a2.6 2.6 0 0 1 .541.956c.126.402.118.837.108 1.435l-.002.09-.007.43v.098a1.4 1.4 0 0 0 .22.736 1.4 1.4 0 0 0 .622.612l.366.204.079.044c.52.289.9.5 1.183.808.25.27.44.592.557.943.132.398.132.832.134 1.427v.652l.001.087c.002.601.003 1.039-.13 1.44a2.601 2.601 0 0 1-.557.95c-.286.31-.668.521-1.192.812l-.08.043-.36.2-.096.054a1.4 1.4 0 0 0-.528.559 1.402 1.402 0 0 0-.22.736l.001.091.008.442.001.088c.01.597.018 1.032-.107 1.433a2.6 2.6 0 0 1-.539.954c-.279.314-.654.532-1.17.831l-.077.045-.488.283-.078.045c-.518.301-.896.52-1.309.607a2.6 2.6 0 0 1-1.1-.009c-.411-.092-.785-.316-1.298-.625l-.078-.047-.356-.214a1.398 1.398 0 0 0-.843-.234l-.112.001a1.398 1.398 0 0 0-.73.232l-.354.212-.08.048c-.51.306-.882.529-1.29.62a2.6 2.6 0 0 1-1.097.01c-.412-.086-.789-.303-1.307-.602l-.076-.043-.493-.285-.077-.044c-.519-.299-.897-.516-1.177-.83a2.6 2.6 0 0 1-.542-.957c-.126-.401-.118-.837-.108-1.434l.002-.092.007-.407v-.117a1.4 1.4 0 0 0-.161-.63l-.048-.085-.01-.017a1.4 1.4 0 0 0-.63-.623l-.359-.2-.08-.045c-.52-.288-.899-.499-1.182-.807a2.6 2.6 0 0 1-.557-.943c-.131-.397-.132-.83-.133-1.422v-.095l-.002-.562v-.093c-.002-.598-.003-1.034.129-1.434a2.6 2.6 0 0 1 .558-.95c.286-.31.668-.521 1.192-.811.026-.015.052-.03.08-.044l.361-.2.095-.054a1.4 1.4 0 0 0 .528-.559l.054-.095a1.4 1.4 0 0 0 .166-.64l-.001-.085v-.025l-.008-.424-.001-.086c-.01-.599-.018-1.033.107-1.435a2.6 2.6 0 0 1 .539-.954c.279-.314.654-.532 1.17-.831l.077-.045.488-.283.079-.045c.517-.301.895-.52 1.307-.607ZM12 8.6a3.4 3.4 0 1 0 0 6.8 3.4 3.4 0 0 0 0-6.8ZM7.4 12a4.6 4.6 0 1 1 9.2 0 4.6 4.6 0 0 1-9.2 0Z" clip-rule="evenodd"/></svg>